# xmcd
#
# Track frame offsets: 
#        150
#        15970
#        34185
#        57150
#        72896
#        85811
#        108458
#        122346
#        136213
#        154417
#        171385
#
# Disc length: 2470 seconds
#
# Revision: 0
# Processed by: cddbd v1.5.2PL0 Copyright (c) Steve Scherf et al.
# Submitted via: ExactAudioCopyFreeDBPlugin 1.0
#
DISCID=8909a40b
DTITLE=Scott Pemberton - Sugar Mama
DYEAR=2012
DGENRE=Blues
TTITLE0=Hot Tamale
TTITLE1=A Wfully Nice Day
TTITLE2=Let's Play House
TTITLE3=Sugar Mama
TTITLE4=East Bar Line
TTITLE5=Space
TTITLE6=Thank You
TTITLE7=Juice Box
TTITLE8=Bubble
TTITLE9=Spin And Breathe
TTITLE10=Let's Do It
EXTD=
EXTT0=
EXTT1=
EXTT2=
EXTT3=
EXTT4=
EXTT5=
EXTT6=
EXTT7=
EXTT8=
EXTT9=
EXTT10=
PLAYORDER=
